<svg width="239" height="52" viewBox="0 0 239 52" fill="none" xmlns="http://www.w3.org/2000/svg">
<path d="M33.344 20.8H34.224V32H33.344V20.8ZM36.384 32H33.824V31.12H36.384C37.0773 31.12 37.7067 31.008 38.272 30.784C38.848 30.56 39.3387 30.2453 39.744 29.84C40.1493 29.424 40.4587 28.928 40.672 28.352C40.896 27.7653 41.008 27.1147 41.008 26.4C41.008 25.6853 40.896 25.04 40.672 24.464C40.4587 23.8773 40.1493 23.3813 39.744 22.976C39.3387 22.56 38.848 22.24 38.272 22.016C37.7067 21.792 37.0773 21.68 36.384 21.68H33.824V20.8H36.384C37.472 20.8 38.4267 21.0347 39.248 21.504C40.08 21.9733 40.7253 22.6293 41.184 23.472C41.6533 24.304 41.888 25.28 41.888 26.4C41.888 27.52 41.6533 28.5013 41.184 29.344C40.7253 30.176 40.08 30.8267 39.248 31.296C38.4267 31.7653 37.472 32 36.384 32ZM44.2258 26.4C44.2258 27.328 44.4231 28.16 44.8178 28.896C45.2231 29.632 45.7724 30.2133 46.4658 30.64C47.1698 31.056 47.9698 31.264 48.8658 31.264C49.7618 31.264 50.5564 31.056 51.2498 30.64C51.9538 30.2133 52.5031 29.632 52.8978 28.896C53.2924 28.16 53.4898 27.328 53.4898 26.4C53.4898 25.4613 53.2924 24.6293 52.8978 23.904C52.5031 23.168 51.9538 22.592 51.2498 22.176C50.5564 21.7493 49.7618 21.536 48.8658 21.536C47.9698 21.536 47.1698 21.7493 46.4658 22.176C45.7724 22.592 45.2231 23.168 44.8178 23.904C44.4231 24.6293 44.2258 25.4613 44.2258 26.4ZM43.2978 26.4C43.2978 25.5787 43.4364 24.8213 43.7138 24.128C43.9911 23.424 44.3804 22.816 44.8818 22.304C45.3831 21.7813 45.9698 21.376 46.6418 21.088C47.3244 20.8 48.0658 20.656 48.8658 20.656C49.6658 20.656 50.4018 20.8 51.0738 21.088C51.7564 21.376 52.3484 21.7813 52.8498 22.304C53.3511 22.816 53.7404 23.424 54.0178 24.128C54.2951 24.8213 54.4338 25.5787 54.4338 26.4C54.4338 27.2213 54.2951 27.984 54.0178 28.688C53.7404 29.3813 53.3511 29.9893 52.8498 30.512C52.3484 31.024 51.7564 31.424 51.0738 31.712C50.4018 32 49.6658 32.144 48.8658 32.144C48.0658 32.144 47.3244 32 46.6418 31.712C45.9698 31.424 45.3831 31.024 44.8818 30.512C44.3804 29.9893 43.9911 29.3813 43.7138 28.688C43.4364 27.984 43.2978 27.2213 43.2978 26.4ZM56.7886 26.4C56.7886 27.3493 56.9913 28.1867 57.3966 28.912C57.802 29.6373 58.346 30.208 59.0286 30.624C59.7113 31.04 60.474 31.248 61.3166 31.248C61.85 31.248 62.3353 31.1893 62.7726 31.072C63.21 30.9547 63.6046 30.7787 63.9566 30.544C64.3193 30.3093 64.6393 30.032 64.9166 29.712V30.896C64.4473 31.312 63.9353 31.6267 63.3806 31.84C62.826 32.0427 62.138 32.144 61.3166 32.144C60.538 32.144 59.8126 32.0053 59.1406 31.728C58.4793 31.44 57.9033 31.04 57.4126 30.528C56.922 30.016 56.538 29.408 56.2606 28.704C55.9833 28 55.8446 27.232 55.8446 26.4C55.8446 25.568 55.9833 24.8 56.2606 24.096C56.538 23.392 56.922 22.784 57.4126 22.272C57.9033 21.76 58.4793 21.3653 59.1406 21.088C59.8126 20.8 60.538 20.656 61.3166 20.656C62.138 20.656 62.826 20.7627 63.3806 20.976C63.9353 21.1787 64.4473 21.488 64.9166 21.904V23.072C64.6393 22.752 64.3193 22.48 63.9566 22.256C63.594 22.0213 63.194 21.8453 62.7566 21.728C62.3193 21.6107 61.8393 21.552 61.3166 21.552C60.474 21.552 59.7113 21.76 59.0286 22.176C58.346 22.5813 57.802 23.1467 57.3966 23.872C56.9913 24.5973 56.7886 25.44 56.7886 26.4ZM67.3578 20.8H68.2378V28.384C68.2378 29.28 68.4724 29.9947 68.9418 30.528C69.4111 31.0613 70.0778 31.328 70.9418 31.328C71.8058 31.328 72.4724 31.0613 72.9418 30.528C73.4111 29.9947 73.6458 29.28 73.6458 28.384V20.8H74.5258V28.384C74.5258 28.9387 74.4458 29.4507 74.2858 29.92C74.1258 30.3787 73.8911 30.7733 73.5818 31.104C73.2724 31.4347 72.8938 31.696 72.4458 31.888C72.0084 32.0693 71.5071 32.16 70.9418 32.16C70.3764 32.16 69.8698 32.0693 69.4218 31.888C68.9844 31.696 68.6111 31.4347 68.3018 31.104C67.9924 30.7733 67.7578 30.3787 67.5978 29.92C67.4378 29.4507 67.3578 28.9387 67.3578 28.384V20.8ZM78.4049 23.136L77.4449 32H76.5649L77.8609 20.368L82.3409 28.976L86.8209 20.368L88.1169 32H87.2369L86.2769 23.136L82.3409 30.704L78.4049 23.136ZM90.6986 32V31.168H96.2506V32H90.6986ZM90.6986 21.632V20.8H96.2506V21.632H90.6986ZM90.6986 26.272V25.44H95.9306V26.272H90.6986ZM90.2346 20.8H91.1146V32H90.2346V20.8ZM107.294 20.8H108.174V32.432L99.6615 22.656V32H98.7815V20.368L107.294 30.176V20.8ZM109.74 21.632V20.8H116.508V21.632H113.564V32H112.684V21.632H109.74ZM118.158 28.768C118.34 29.2373 118.558 29.664 118.814 30.048C119.081 30.432 119.406 30.7413 119.79 30.976C120.174 31.2 120.633 31.312 121.166 31.312C121.892 31.312 122.457 31.1147 122.862 30.72C123.278 30.3147 123.486 29.8027 123.486 29.184C123.486 28.64 123.364 28.2027 123.118 27.872C122.873 27.5413 122.553 27.2747 122.158 27.072C121.774 26.8587 121.369 26.672 120.942 26.512C120.622 26.3947 120.286 26.256 119.934 26.096C119.593 25.9253 119.273 25.7227 118.974 25.488C118.676 25.2427 118.43 24.9493 118.238 24.608C118.057 24.2667 117.966 23.856 117.966 23.376C117.966 22.8427 118.094 22.3733 118.35 21.968C118.606 21.552 118.964 21.232 119.422 21.008C119.881 20.7733 120.398 20.656 120.974 20.656C121.572 20.656 122.084 20.768 122.51 20.992C122.948 21.216 123.31 21.4987 123.598 21.84C123.886 22.1813 124.105 22.5333 124.254 22.896L123.486 23.328C123.369 23.04 123.198 22.7573 122.974 22.48C122.761 22.2027 122.489 21.9733 122.158 21.792C121.828 21.6 121.417 21.504 120.926 21.504C120.276 21.504 119.774 21.6747 119.422 22.016C119.07 22.3467 118.894 22.7627 118.894 23.264C118.894 23.68 118.996 24.0373 119.198 24.336C119.401 24.6347 119.705 24.9067 120.11 25.152C120.516 25.3867 121.017 25.6107 121.614 25.824C121.924 25.9413 122.244 26.0853 122.574 26.256C122.905 26.4267 123.204 26.64 123.47 26.896C123.748 27.152 123.972 27.4613 124.142 27.824C124.313 28.176 124.398 28.5973 124.398 29.088C124.398 29.5467 124.313 29.9627 124.142 30.336C123.982 30.7093 123.753 31.0347 123.454 31.312C123.166 31.5787 122.825 31.7867 122.43 31.936C122.036 32.0747 121.609 32.144 121.15 32.144C120.5 32.144 119.929 32.0107 119.438 31.744C118.948 31.4773 118.537 31.12 118.206 30.672C117.876 30.224 117.62 29.7387 117.438 29.216L118.158 28.768ZM131.186 20.8H132.066V28.384C132.066 29.28 132.301 29.9947 132.77 30.528C133.239 31.0613 133.906 31.328 134.77 31.328C135.634 31.328 136.301 31.0613 136.77 30.528C137.239 29.9947 137.474 29.28 137.474 28.384V20.8H138.354V28.384C138.354 28.9387 138.274 29.4507 138.114 29.92C137.954 30.3787 137.719 30.7733 137.41 31.104C137.101 31.4347 136.722 31.696 136.274 31.888C135.837 32.0693 135.335 32.16 134.77 32.16C134.205 32.16 133.698 32.0693 133.25 31.888C132.813 31.696 132.439 31.4347 132.13 31.104C131.821 30.7733 131.586 30.3787 131.426 29.92C131.266 29.4507 131.186 28.9387 131.186 28.384V20.8ZM149.481 20.8H150.361V32.432L141.849 22.656V32H140.969V20.368L149.481 30.176V20.8ZM153.015 20.8H153.895V32H153.015V20.8ZM160.291 30.384L164.243 20.8H165.235L160.291 32.432L155.347 20.8H156.339L160.291 30.384ZM167.183 32V31.168H172.735V32H167.183ZM167.183 21.632V20.8H172.735V21.632H167.183ZM167.183 26.272V25.44H172.415V26.272H167.183ZM166.719 20.8H167.599V32H166.719V20.8ZM177.17 26.656H178.146L181.97 32H180.882L177.17 26.656ZM175.266 20.8H176.146V32H175.266V20.8ZM175.73 21.584V20.8H177.826C178.551 20.8 179.197 20.928 179.762 21.184C180.338 21.44 180.791 21.808 181.122 22.288C181.453 22.768 181.618 23.3547 181.618 24.048C181.618 24.7307 181.453 25.3173 181.122 25.808C180.791 26.2987 180.338 26.672 179.762 26.928C179.197 27.1733 178.551 27.296 177.826 27.296H175.73V26.512H177.826C178.391 26.512 178.893 26.4213 179.33 26.24C179.778 26.048 180.125 25.7707 180.37 25.408C180.615 25.0347 180.738 24.5813 180.738 24.048C180.738 23.5147 180.61 23.0667 180.354 22.704C180.109 22.3413 179.767 22.064 179.33 21.872C178.893 21.68 178.391 21.584 177.826 21.584H175.73ZM183.721 28.768C183.902 29.2373 184.121 29.664 184.377 30.048C184.644 30.432 184.969 30.7413 185.353 30.976C185.737 31.2 186.196 31.312 186.729 31.312C187.454 31.312 188.02 31.1147 188.425 30.72C188.841 30.3147 189.049 29.8027 189.049 29.184C189.049 28.64 188.926 28.2027 188.681 27.872C188.436 27.5413 188.116 27.2747 187.721 27.072C187.337 26.8587 186.932 26.672 186.505 26.512C186.185 26.3947 185.849 26.256 185.497 26.096C185.156 25.9253 184.836 25.7227 184.537 25.488C184.238 25.2427 183.993 24.9493 183.801 24.608C183.62 24.2667 183.529 23.856 183.529 23.376C183.529 22.8427 183.657 22.3733 183.913 21.968C184.169 21.552 184.526 21.232 184.985 21.008C185.444 20.7733 185.961 20.656 186.537 20.656C187.134 20.656 187.646 20.768 188.073 20.992C188.51 21.216 188.873 21.4987 189.161 21.84C189.449 22.1813 189.668 22.5333 189.817 22.896L189.049 23.328C188.932 23.04 188.761 22.7573 188.537 22.48C188.324 22.2027 188.052 21.9733 187.721 21.792C187.39 21.6 186.98 21.504 186.489 21.504C185.838 21.504 185.337 21.6747 184.985 22.016C184.633 22.3467 184.457 22.7627 184.457 23.264C184.457 23.68 184.558 24.0373 184.761 24.336C184.964 24.6347 185.268 24.9067 185.673 25.152C186.078 25.3867 186.58 25.6107 187.177 25.824C187.486 25.9413 187.806 26.0853 188.137 26.256C188.468 26.4267 188.766 26.64 189.033 26.896C189.31 27.152 189.534 27.4613 189.705 27.824C189.876 28.176 189.961 28.5973 189.961 29.088C189.961 29.5467 189.876 29.9627 189.705 30.336C189.545 30.7093 189.316 31.0347 189.017 31.312C188.729 31.5787 188.388 31.7867 187.993 31.936C187.598 32.0747 187.172 32.144 186.713 32.144C186.062 32.144 185.492 32.0107 185.001 31.744C184.51 31.4773 184.1 31.12 183.769 30.672C183.438 30.224 183.182 29.7387 183.001 29.216L183.721 28.768ZM192 20.8H192.88V32H192V20.8ZM194.412 21.632V20.8H201.18V21.632H198.236V32H197.356V21.632H194.412ZM202.053 28.24L202.341 27.408H207.509L207.797 28.24H202.053ZM204.901 22.4L202.725 27.696L202.629 27.888L200.949 32H199.957L204.901 20.368L209.845 32H208.852L207.189 27.952L207.109 27.744L204.901 22.4ZM211.296 20.8H212.176V32H211.296V20.8ZM216.732 26.656H217.708L221.532 32H220.444L216.732 26.656ZM214.828 20.8H215.708V32H214.828V20.8ZM215.292 21.584V20.8H217.388C218.114 20.8 218.759 20.928 219.324 21.184C219.9 21.44 220.354 21.808 220.684 22.288C221.015 22.768 221.18 23.3547 221.18 24.048C221.18 24.7307 221.015 25.3173 220.684 25.808C220.354 26.2987 219.9 26.672 219.324 26.928C218.759 27.1733 218.114 27.296 217.388 27.296H215.292V26.512H217.388C217.954 26.512 218.455 26.4213 218.892 26.24C219.34 26.048 219.687 25.7707 219.932 25.408C220.178 25.0347 220.3 24.5813 220.3 24.048C220.3 23.5147 220.172 23.0667 219.916 22.704C219.671 22.3413 219.33 22.064 218.892 21.872C218.455 21.68 217.954 21.584 217.388 21.584H215.292ZM223.667 32V31.168H229.219V32H223.667ZM223.667 21.632V20.8H229.219V21.632H223.667ZM223.667 26.272V25.44H228.899V26.272H223.667ZM223.203 20.8H224.083V32H223.203V20.8ZM231.83 28.768C232.012 29.2373 232.23 29.664 232.486 30.048C232.753 30.432 233.078 30.7413 233.462 30.976C233.846 31.2 234.305 31.312 234.838 31.312C235.564 31.312 236.129 31.1147 236.534 30.72C236.95 30.3147 237.158 29.8027 237.158 29.184C237.158 28.64 237.036 28.2027 236.79 27.872C236.545 27.5413 236.225 27.2747 235.83 27.072C235.446 26.8587 235.041 26.672 234.614 26.512C234.294 26.3947 233.958 26.256 233.606 26.096C233.265 25.9253 232.945 25.7227 232.646 25.488C232.348 25.2427 232.102 24.9493 231.91 24.608C231.729 24.2667 231.638 23.856 231.638 23.376C231.638 22.8427 231.766 22.3733 232.022 21.968C232.278 21.552 232.636 21.232 233.094 21.008C233.553 20.7733 234.07 20.656 234.646 20.656C235.244 20.656 235.756 20.768 236.182 20.992C236.62 21.216 236.982 21.4987 237.27 21.84C237.558 22.1813 237.777 22.5333 237.926 22.896L237.158 23.328C237.041 23.04 236.87 22.7573 236.646 22.48C236.433 22.2027 236.161 21.9733 235.83 21.792C235.5 21.6 235.089 21.504 234.598 21.504C233.948 21.504 233.446 21.6747 233.094 22.016C232.742 22.3467 232.566 22.7627 232.566 23.264C232.566 23.68 232.668 24.0373 232.87 24.336C233.073 24.6347 233.377 24.9067 233.782 25.152C234.188 25.3867 234.689 25.6107 235.286 25.824C235.596 25.9413 235.916 26.0853 236.246 26.256C236.577 26.4267 236.876 26.64 237.142 26.896C237.42 27.152 237.644 27.4613 237.814 27.824C237.985 28.176 238.07 28.5973 238.07 29.088C238.07 29.5467 237.985 29.9627 237.814 30.336C237.654 30.7093 237.425 31.0347 237.126 31.312C236.838 31.5787 236.497 31.7867 236.102 31.936C235.708 32.0747 235.281 32.144 234.822 32.144C234.172 32.144 233.601 32.0107 233.11 31.744C232.62 31.4773 232.209 31.12 231.878 30.672C231.548 30.224 231.292 29.7387 231.11 29.216L231.83 28.768Z" fill="black"/>
<path fill-rule="evenodd" clip-rule="evenodd" d="M26 0V52C11.6406 52 0 40.3594 0 26C0 11.6406 11.6406 0 26 0Z" fill="#F5A524"/>
</svg>
